<svg xmlns="http://www.w3.org/2000/svg" xmlns:xlink="http://www.w3.org/1999/xlink" width="500" zoomAndPan="magnify" viewBox="0 0 375 374.999991" height="500" preserveAspectRatio="xMidYMid meet" version="1.0"><defs><g/><linearGradient x1="0" gradientTransform="matrix(0.75, 0, 0, 0.75, 0.0000045, 0)" y1="250" x2="499.999979" gradientUnits="userSpaceOnUse" y2="250" id="e5d6c56a10"><stop stop-opacity="1" stop-color="rgb(65.098572%, 65.098572%, 65.098572%)" offset="0"/><stop stop-opacity="1" stop-color="rgb(65.234375%, 65.234375%, 65.234375%)" offset="0.0078125"/><stop stop-opacity="1" stop-color="rgb(65.507507%, 65.507507%, 65.507507%)" offset="0.015625"/><stop stop-opacity="1" stop-color="rgb(65.78064%, 65.78064%, 65.78064%)" offset="0.0234375"/><stop stop-opacity="1" stop-color="rgb(66.052246%, 66.052246%, 66.052246%)" offset="0.03125"/><stop stop-opacity="1" stop-color="rgb(66.325378%, 66.325378%, 66.325378%)" offset="0.0390625"/><stop stop-opacity="1" stop-color="rgb(66.598511%, 66.598511%, 66.598511%)" offset="0.046875"/><stop stop-opacity="1" stop-color="rgb(66.871643%, 66.871643%, 66.871643%)" offset="0.0546875"/><stop stop-opacity="1" stop-color="rgb(67.14325%, 67.14325%, 67.14325%)" offset="0.0625"/><stop stop-opacity="1" stop-color="rgb(67.416382%, 67.416382%, 67.416382%)" offset="0.0703125"/><stop stop-opacity="1" stop-color="rgb(67.689514%, 67.689514%, 67.689514%)" offset="0.078125"/><stop stop-opacity="1" stop-color="rgb(67.961121%, 67.961121%, 67.961121%)" offset="0.0859375"/><stop stop-opacity="1" stop-color="rgb(68.234253%, 68.234253%, 68.234253%)" offset="0.09375"/><stop stop-opacity="1" stop-color="rgb(68.507385%, 68.507385%, 68.507385%)" offset="0.101562"/><stop stop-opacity="1" stop-color="rgb(68.778992%, 68.778992%, 68.778992%)" offset="0.109375"/><stop stop-opacity="1" stop-color="rgb(69.052124%, 69.052124%, 69.052124%)" offset="0.117188"/><stop stop-opacity="1" stop-color="rgb(69.325256%, 69.325256%, 69.325256%)" offset="0.125"/><stop stop-opacity="1" stop-color="rgb(69.596863%, 69.596863%, 69.596863%)" offset="0.132812"/><stop stop-opacity="1" stop-color="rgb(69.869995%, 69.869995%, 69.869995%)" offset="0.140625"/><stop stop-opacity="1" stop-color="rgb(70.143127%, 70.143127%, 70.143127%)" offset="0.148437"/><stop stop-opacity="1" stop-color="rgb(70.41626%, 70.41626%, 70.41626%)" offset="0.15625"/><stop stop-opacity="1" stop-color="rgb(70.687866%, 70.687866%, 70.687866%)" offset="0.164062"/><stop stop-opacity="1" stop-color="rgb(70.960999%, 70.960999%, 70.960999%)" offset="0.171875"/><stop stop-opacity="1" stop-color="rgb(71.234131%, 71.234131%, 71.234131%)" offset="0.179687"/><stop stop-opacity="1" stop-color="rgb(71.505737%, 71.505737%, 71.505737%)" offset="0.1875"/><stop stop-opacity="1" stop-color="rgb(71.77887%, 71.77887%, 71.77887%)" offset="0.195312"/><stop stop-opacity="1" stop-color="rgb(72.052002%, 72.052002%, 72.052002%)" offset="0.203125"/><stop stop-opacity="1" stop-color="rgb(72.323608%, 72.323608%, 72.323608%)" offset="0.210938"/><stop stop-opacity="1" stop-color="rgb(72.596741%, 72.596741%, 72.596741%)" offset="0.21875"/><stop stop-opacity="1" stop-color="rgb(72.869873%, 72.869873%, 72.869873%)" offset="0.226562"/><stop stop-opacity="1" stop-color="rgb(73.141479%, 73.141479%, 73.141479%)" offset="0.234375"/><stop stop-opacity="1" stop-color="rgb(73.414612%, 73.414612%, 73.414612%)" offset="0.242188"/><stop stop-opacity="1" stop-color="rgb(73.687744%, 73.687744%, 73.687744%)" offset="0.25"/><stop stop-opacity="1" stop-color="rgb(73.959351%, 73.959351%, 73.959351%)" offset="0.257812"/><stop stop-opacity="1" stop-color="rgb(74.232483%, 74.232483%, 74.232483%)" offset="0.265625"/><stop stop-opacity="1" stop-color="rgb(74.505615%, 74.505615%, 74.505615%)" offset="0.273437"/><stop stop-opacity="1" stop-color="rgb(74.778748%, 74.778748%, 74.778748%)" offset="0.28125"/><stop stop-opacity="1" stop-color="rgb(75.050354%, 75.050354%, 75.050354%)" offset="0.289062"/><stop stop-opacity="1" stop-color="rgb(75.323486%, 75.323486%, 75.323486%)" offset="0.296875"/><stop stop-opacity="1" stop-color="rgb(75.596619%, 75.596619%, 75.596619%)" offset="0.304687"/><stop stop-opacity="1" stop-color="rgb(75.868225%, 75.868225%, 75.868225%)" offset="0.3125"/><stop stop-opacity="1" stop-color="rgb(76.141357%, 76.141357%, 76.141357%)" offset="0.320312"/><stop stop-opacity="1" stop-color="rgb(76.41449%, 76.41449%, 76.41449%)" offset="0.328125"/><stop stop-opacity="1" stop-color="rgb(76.686096%, 76.686096%, 76.686096%)" offset="0.335937"/><stop stop-opacity="1" stop-color="rgb(76.959229%, 76.959229%, 76.959229%)" offset="0.34375"/><stop stop-opacity="1" stop-color="rgb(77.232361%, 77.232361%, 77.232361%)" offset="0.351562"/><stop stop-opacity="1" stop-color="rgb(77.503967%, 77.503967%, 77.503967%)" offset="0.359375"/><stop stop-opacity="1" stop-color="rgb(77.7771%, 77.7771%, 77.7771%)" offset="0.367187"/><stop stop-opacity="1" stop-color="rgb(78.050232%, 78.050232%, 78.050232%)" offset="0.375"/><stop stop-opacity="1" stop-color="rgb(78.321838%, 78.321838%, 78.321838%)" offset="0.382812"/><stop stop-opacity="1" stop-color="rgb(78.594971%, 78.594971%, 78.594971%)" offset="0.390625"/><stop stop-opacity="1" stop-color="rgb(78.868103%, 78.868103%, 78.868103%)" offset="0.398438"/><stop stop-opacity="1" stop-color="rgb(79.141235%, 79.141235%, 79.141235%)" offset="0.40625"/><stop stop-opacity="1" stop-color="rgb(79.412842%, 79.412842%, 79.412842%)" offset="0.414062"/><stop stop-opacity="1" stop-color="rgb(79.685974%, 79.685974%, 79.685974%)" offset="0.421875"/><stop stop-opacity="1" stop-color="rgb(79.959106%, 79.959106%, 79.959106%)" offset="0.429688"/><stop stop-opacity="1" stop-color="rgb(80.230713%, 80.230713%, 80.230713%)" offset="0.4375"/><stop stop-opacity="1" stop-color="rgb(80.503845%, 80.503845%, 80.503845%)" offset="0.445312"/><stop stop-opacity="1" stop-color="rgb(80.776978%, 80.776978%, 80.776978%)" offset="0.453125"/><stop stop-opacity="1" stop-color="rgb(81.048584%, 81.048584%, 81.048584%)" offset="0.460938"/><stop stop-opacity="1" stop-color="rgb(81.321716%, 81.321716%, 81.321716%)" offset="0.46875"/><stop stop-opacity="1" stop-color="rgb(81.594849%, 81.594849%, 81.594849%)" offset="0.476562"/><stop stop-opacity="1" stop-color="rgb(81.866455%, 81.866455%, 81.866455%)" offset="0.484375"/><stop stop-opacity="1" stop-color="rgb(82.139587%, 82.139587%, 82.139587%)" offset="0.492188"/><stop stop-opacity="1" stop-color="rgb(82.41272%, 82.41272%, 82.41272%)" offset="0.5"/><stop stop-opacity="1" stop-color="rgb(82.684326%, 82.684326%, 82.684326%)" offset="0.507812"/><stop stop-opacity="1" stop-color="rgb(82.957458%, 82.957458%, 82.957458%)" offset="0.515625"/><stop stop-opacity="1" stop-color="rgb(83.230591%, 83.230591%, 83.230591%)" offset="0.523437"/><stop stop-opacity="1" stop-color="rgb(83.503723%, 83.503723%, 83.503723%)" offset="0.53125"/><stop stop-opacity="1" stop-color="rgb(83.77533%, 83.77533%, 83.77533%)" offset="0.539062"/><stop stop-opacity="1" stop-color="rgb(84.048462%, 84.048462%, 84.048462%)" offset="0.546875"/><stop stop-opacity="1" stop-color="rgb(84.321594%, 84.321594%, 84.321594%)" offset="0.554687"/><stop stop-opacity="1" stop-color="rgb(84.593201%, 84.593201%, 84.593201%)" offset="0.5625"/><stop stop-opacity="1" stop-color="rgb(84.866333%, 84.866333%, 84.866333%)" offset="0.570312"/><stop stop-opacity="1" stop-color="rgb(85.139465%, 85.139465%, 85.139465%)" offset="0.578125"/><stop stop-opacity="1" stop-color="rgb(85.411072%, 85.411072%, 85.411072%)" offset="0.585937"/><stop stop-opacity="1" stop-color="rgb(85.684204%, 85.684204%, 85.684204%)" offset="0.59375"/><stop stop-opacity="1" stop-color="rgb(85.957336%, 85.957336%, 85.957336%)" offset="0.601562"/><stop stop-opacity="1" stop-color="rgb(86.228943%, 86.228943%, 86.228943%)" offset="0.609375"/><stop stop-opacity="1" stop-color="rgb(86.502075%, 86.502075%, 86.502075%)" offset="0.617187"/><stop stop-opacity="1" stop-color="rgb(86.775208%, 86.775208%, 86.775208%)" offset="0.625"/><stop stop-opacity="1" stop-color="rgb(87.046814%, 87.046814%, 87.046814%)" offset="0.632812"/><stop stop-opacity="1" stop-color="rgb(87.319946%, 87.319946%, 87.319946%)" offset="0.640625"/><stop stop-opacity="1" stop-color="rgb(87.593079%, 87.593079%, 87.593079%)" offset="0.648437"/><stop stop-opacity="1" stop-color="rgb(87.866211%, 87.866211%, 87.866211%)" offset="0.65625"/><stop stop-opacity="1" stop-color="rgb(88.137817%, 88.137817%, 88.137817%)" offset="0.664062"/><stop stop-opacity="1" stop-color="rgb(88.41095%, 88.41095%, 88.41095%)" offset="0.671875"/><stop stop-opacity="1" stop-color="rgb(88.684082%, 88.684082%, 88.684082%)" offset="0.679687"/><stop stop-opacity="1" stop-color="rgb(88.955688%, 88.955688%, 88.955688%)" offset="0.6875"/><stop stop-opacity="1" stop-color="rgb(89.228821%, 89.228821%, 89.228821%)" offset="0.695312"/><stop stop-opacity="1" stop-color="rgb(89.501953%, 89.501953%, 89.501953%)" offset="0.703125"/><stop stop-opacity="1" stop-color="rgb(89.77356%, 89.77356%, 89.77356%)" offset="0.710937"/><stop stop-opacity="1" stop-color="rgb(90.046692%, 90.046692%, 90.046692%)" offset="0.71875"/><stop stop-opacity="1" stop-color="rgb(90.319824%, 90.319824%, 90.319824%)" offset="0.726562"/><stop stop-opacity="1" stop-color="rgb(90.591431%, 90.591431%, 90.591431%)" offset="0.734375"/><stop stop-opacity="1" stop-color="rgb(90.864563%, 90.864563%, 90.864563%)" offset="0.742187"/><stop stop-opacity="1" stop-color="rgb(91.137695%, 91.137695%, 91.137695%)" offset="0.75"/><stop stop-opacity="1" stop-color="rgb(91.409302%, 91.409302%, 91.409302%)" offset="0.757812"/><stop stop-opacity="1" stop-color="rgb(91.682434%, 91.682434%, 91.682434%)" offset="0.765625"/><stop stop-opacity="1" stop-color="rgb(91.955566%, 91.955566%, 91.955566%)" offset="0.773438"/><stop stop-opacity="1" stop-color="rgb(92.228699%, 92.228699%, 92.228699%)" offset="0.78125"/><stop stop-opacity="1" stop-color="rgb(92.500305%, 92.500305%, 92.500305%)" offset="0.789062"/><stop stop-opacity="1" stop-color="rgb(92.773438%, 92.773438%, 92.773438%)" offset="0.796875"/><stop stop-opacity="1" stop-color="rgb(93.04657%, 93.04657%, 93.04657%)" offset="0.804688"/><stop stop-opacity="1" stop-color="rgb(93.318176%, 93.318176%, 93.318176%)" offset="0.8125"/><stop stop-opacity="1" stop-color="rgb(93.591309%, 93.591309%, 93.591309%)" offset="0.820312"/><stop stop-opacity="1" stop-color="rgb(93.864441%, 93.864441%, 93.864441%)" offset="0.828125"/><stop stop-opacity="1" stop-color="rgb(94.136047%, 94.136047%, 94.136047%)" offset="0.835938"/><stop stop-opacity="1" stop-color="rgb(94.40918%, 94.40918%, 94.40918%)" offset="0.84375"/><stop stop-opacity="1" stop-color="rgb(94.682312%, 94.682312%, 94.682312%)" offset="0.851562"/><stop stop-opacity="1" stop-color="rgb(94.953918%, 94.953918%, 94.953918%)" offset="0.859375"/><stop stop-opacity="1" stop-color="rgb(95.227051%, 95.227051%, 95.227051%)" offset="0.867188"/><stop stop-opacity="1" stop-color="rgb(95.500183%, 95.500183%, 95.500183%)" offset="0.875"/><stop stop-opacity="1" stop-color="rgb(95.77179%, 95.77179%, 95.77179%)" offset="0.882812"/><stop stop-opacity="1" stop-color="rgb(96.044922%, 96.044922%, 96.044922%)" offset="0.890625"/><stop stop-opacity="1" stop-color="rgb(96.318054%, 96.318054%, 96.318054%)" offset="0.898438"/><stop stop-opacity="1" stop-color="rgb(96.591187%, 96.591187%, 96.591187%)" offset="0.90625"/><stop stop-opacity="1" stop-color="rgb(96.862793%, 96.862793%, 96.862793%)" offset="0.914062"/><stop stop-opacity="1" stop-color="rgb(97.135925%, 97.135925%, 97.135925%)" offset="0.921875"/><stop stop-opacity="1" stop-color="rgb(97.409058%, 97.409058%, 97.409058%)" offset="0.929688"/><stop stop-opacity="1" stop-color="rgb(97.680664%, 97.680664%, 97.680664%)" offset="0.9375"/><stop stop-opacity="1" stop-color="rgb(97.953796%, 97.953796%, 97.953796%)" offset="0.945312"/><stop stop-opacity="1" stop-color="rgb(98.226929%, 98.226929%, 98.226929%)" offset="0.953125"/><stop stop-opacity="1" stop-color="rgb(98.498535%, 98.498535%, 98.498535%)" offset="0.960938"/><stop stop-opacity="1" stop-color="rgb(98.771667%, 98.771667%, 98.771667%)" offset="0.96875"/><stop stop-opacity="1" stop-color="rgb(99.0448%, 99.0448%, 99.0448%)" offset="0.976562"/><stop stop-opacity="1" stop-color="rgb(99.316406%, 99.316406%, 99.316406%)" offset="0.984375"/><stop stop-opacity="1" stop-color="rgb(99.589539%, 99.589539%, 99.589539%)" offset="0.992188"/><stop stop-opacity="1" stop-color="rgb(99.862671%, 99.862671%, 99.862671%)" offset="1"/></linearGradient><clipPath id="450c24201d"><path d="M 159.800781 207.457031 L 215.300781 207.457031 L 215.300781 262.957031 L 159.800781 262.957031 Z M 159.800781 207.457031 " clip-rule="nonzero"/></clipPath></defs><rect x="-37.5" width="450" fill="#ffffff" y="-37.499999" height="449.999989" fill-opacity="1"/><rect x="-37.5" fill="url(#e5d6c56a10)" width="450" y="-37.499999" height="449.999989"/><g clip-path="url(#450c24201d)"><path fill="#272727" d="M 215.191406 235.152344 C 194.421875 238.976562 191.320312 242.078125 187.496094 262.847656 C 183.671875 242.078125 180.574219 238.976562 159.800781 235.152344 C 180.574219 231.328125 183.671875 228.230469 187.496094 207.457031 C 191.320312 228.230469 194.421875 231.328125 215.191406 235.152344 Z M 215.191406 235.152344 " fill-opacity="1" fill-rule="nonzero"/></g><g fill="#000000" fill-opacity="1"><g transform="translate(45.925936, 227.73543)"><g><path d="M 43.078125 -78.734375 L 43.078125 -68.671875 C 43.078125 -65.921875 44.039062 -63.414062 45.96875 -61.15625 C 47.894531 -58.894531 50.289062 -57.765625 53.15625 -57.765625 C 50.289062 -57.765625 47.894531 -56.632812 45.96875 -54.375 C 44.039062 -52.125 43.078125 -49.625 43.078125 -46.875 L 43.078125 -10.890625 C 43.078125 -8.140625 44.039062 -5.632812 45.96875 -3.375 C 47.894531 -1.125 50.289062 0 53.15625 0 L 4.125 0 C 6.875 0 9.210938 -1.125 11.140625 -3.375 C 13.066406 -5.632812 14.03125 -8.140625 14.03125 -10.890625 L 14.03125 -104.65625 C 14.03125 -107.40625 13.066406 -109.90625 11.140625 -112.15625 C 9.210938 -114.414062 6.875 -115.546875 4.125 -115.546875 L 53.15625 -115.546875 C 50.289062 -115.546875 47.894531 -114.414062 45.96875 -112.15625 C 44.039062 -109.90625 43.078125 -107.40625 43.078125 -104.65625 Z M 97.0625 -10.890625 C 97.0625 -8.140625 98.019531 -5.632812 99.9375 -3.375 C 101.863281 -1.125 104.257812 0 107.125 0 L 58.109375 0 C 60.859375 0 63.191406 -1.125 65.109375 -3.375 C 67.035156 -5.632812 68 -8.140625 68 -10.890625 L 68 -46.875 C 68 -49.625 67.035156 -52.125 65.109375 -54.375 C 63.191406 -56.632812 60.859375 -57.765625 58.109375 -57.765625 C 60.859375 -57.765625 63.191406 -58.894531 65.109375 -61.15625 C 67.035156 -63.414062 68 -65.921875 68 -68.671875 L 68 -104.65625 C 68 -107.40625 67.035156 -109.90625 65.109375 -112.15625 C 63.191406 -114.414062 60.859375 -115.546875 58.109375 -115.546875 L 107.125 -115.546875 C 104.257812 -115.546875 101.863281 -114.414062 99.9375 -112.15625 C 98.019531 -109.90625 97.0625 -107.40625 97.0625 -104.65625 Z M 97.0625 -10.890625 "/></g></g></g><g fill="#000000" fill-opacity="1"><g transform="translate(160.612427, 188.050016)"><g><path d="M 33.96875 -28.65625 C 33.5 -28.394531 33.203125 -28.03125 33.078125 -27.5625 C 32.953125 -27.101562 32.890625 -26.671875 32.890625 -26.265625 C 32.941406 -25.234375 33.285156 -24.460938 33.921875 -23.953125 C 34.566406 -23.441406 35.171875 -22.898438 35.734375 -22.328125 C 36.554688 -21.515625 37.160156 -20.601562 37.546875 -19.59375 C 37.929688 -18.59375 38.125 -17.550781 38.125 -16.46875 C 38.125 -15.394531 37.929688 -14.359375 37.546875 -13.359375 C 37.160156 -12.359375 36.554688 -11.445312 35.734375 -10.625 C 34.910156 -9.851562 34 -9.257812 33 -8.84375 C 32 -8.4375 30.972656 -8.234375 29.921875 -8.234375 C 28.867188 -8.234375 27.828125 -8.4375 26.796875 -8.84375 C 25.773438 -9.257812 24.878906 -9.851562 24.109375 -10.625 C 23.285156 -11.445312 22.664062 -12.359375 22.25 -13.359375 C 21.84375 -14.359375 21.640625 -15.394531 21.640625 -16.46875 C 21.640625 -17.550781 21.84375 -18.59375 22.25 -19.59375 C 22.664062 -20.601562 23.285156 -21.515625 24.109375 -22.328125 C 25.234375 -23.515625 26.65625 -24.609375 28.375 -25.609375 C 30.09375 -26.609375 31.957031 -27.625 33.96875 -28.65625 Z M 24.265625 -53.828125 C 25.898438 -53.734375 27.460938 -53.425781 28.953125 -52.90625 C 30.441406 -52.394531 31.78125 -51.703125 32.96875 -50.828125 C 35.84375 -48.671875 37.28125 -46.128906 37.28125 -43.203125 C 37.28125 -41.609375 36.726562 -40.242188 35.625 -39.109375 C 34.519531 -37.984375 33.144531 -37.421875 31.5 -37.421875 C 29.90625 -37.421875 28.539062 -37.984375 27.40625 -39.109375 C 26.28125 -40.242188 25.71875 -41.609375 25.71875 -43.203125 C 25.71875 -44.023438 25.867188 -44.78125 26.171875 -45.46875 C 26.484375 -46.164062 26.925781 -46.796875 27.5 -47.359375 C 28.46875 -48.441406 28.953125 -49.46875 28.953125 -50.4375 C 28.953125 -51.207031 28.539062 -51.925781 27.71875 -52.59375 C 26.90625 -53.269531 25.753906 -53.679688 24.265625 -53.828125 Z M 22.40625 0 C 19.632812 0 17.015625 -0.410156 14.546875 -1.234375 C 12.085938 -2.054688 9.882812 -3.238281 7.9375 -4.78125 C 5.976562 -6.363281 4.484375 -8.15625 3.453125 -10.15625 C 2.429688 -12.164062 1.921875 -14.273438 1.921875 -16.484375 C 1.921875 -18.691406 2.429688 -20.796875 3.453125 -22.796875 C 4.484375 -24.796875 5.976562 -26.59375 7.9375 -28.1875 C 11.164062 -30.707031 14.9375 -32.25 19.25 -32.8125 C 16.582031 -33.21875 14.25 -34.164062 12.25 -35.65625 C 9.320312 -37.707031 7.859375 -40.222656 7.859375 -43.203125 C 7.859375 -46.128906 9.320312 -48.671875 12.25 -50.828125 C 13.632812 -51.859375 15.210938 -52.628906 16.984375 -53.140625 C 18.753906 -53.648438 20.613281 -53.90625 22.5625 -53.90625 C 21.125 -53.800781 20.082031 -52.835938 19.4375 -51.015625 C 18.800781 -49.191406 18.484375 -46.585938 18.484375 -43.203125 C 18.484375 -39.453125 19.0625 -36.769531 20.21875 -35.15625 C 21.375 -33.539062 22.769531 -32.734375 24.40625 -32.734375 C 21.894531 -32.734375 19.90625 -31.359375 18.4375 -28.609375 C 16.976562 -25.859375 16.25 -21.816406 16.25 -16.484375 C 16.25 -11.191406 16.695312 -7.132812 17.59375 -4.3125 C 18.5 -1.488281 20.101562 -0.0507812 22.40625 0 Z M 45.203125 -34.125 C 45.773438 -34.582031 46.0625 -35.117188 46.0625 -35.734375 C 46.0625 -36.191406 45.914062 -36.585938 45.625 -36.921875 C 45.34375 -37.253906 45 -37.472656 44.59375 -37.578125 C 43.363281 -37.941406 42.335938 -38.632812 41.515625 -39.65625 C 40.691406 -40.6875 40.28125 -41.867188 40.28125 -43.203125 C 40.28125 -44.847656 40.84375 -46.222656 41.96875 -47.328125 C 43.101562 -48.429688 44.46875 -48.984375 46.0625 -48.984375 C 47.644531 -48.984375 49 -48.429688 50.125 -47.328125 C 51.257812 -46.222656 51.828125 -44.847656 51.828125 -43.203125 C 51.828125 -41.359375 51.210938 -39.703125 49.984375 -38.234375 C 48.753906 -36.773438 47.160156 -35.40625 45.203125 -34.125 Z M 45.203125 -34.125 "/></g></g></g><g fill="#000000" fill-opacity="1"><g transform="translate(221.041528, 226.288168)"><g><path d="M 57.765625 -111.390625 C 64.660156 -111.390625 71.15625 -109.929688 77.25 -107.015625 C 83.351562 -104.097656 88.660156 -100.117188 93.171875 -95.078125 C 97.679688 -90.035156 101.257812 -84.117188 103.90625 -77.328125 C 106.5625 -70.546875 107.890625 -63.332031 107.890625 -55.6875 C 107.890625 -48.050781 106.5625 -40.835938 103.90625 -34.046875 C 101.257812 -27.265625 97.679688 -21.351562 93.171875 -16.3125 C 88.660156 -11.269531 83.351562 -7.289062 77.25 -4.375 C 71.15625 -1.457031 64.660156 0 57.765625 0 L 46.46875 0 C 50.8125 0 54.921875 -1.484375 58.796875 -4.453125 C 62.671875 -7.421875 66.039062 -11.453125 68.90625 -16.546875 C 71.769531 -21.640625 74.019531 -27.550781 75.65625 -34.28125 C 77.300781 -41.019531 78.125 -48.15625 78.125 -55.6875 C 78.125 -63.21875 77.300781 -70.351562 75.65625 -77.09375 C 74.019531 -83.832031 71.769531 -89.742188 68.90625 -94.828125 C 66.039062 -99.921875 62.671875 -103.953125 58.796875 -106.921875 C 54.921875 -109.898438 50.8125 -111.390625 46.46875 -111.390625 Z M 41.53125 -110.4375 L 41.53125 0 L 3.984375 0 C 6.628906 0 8.878906 -1.085938 10.734375 -3.265625 C 12.597656 -5.441406 13.53125 -7.851562 13.53125 -10.5 L 13.53125 -100.890625 C 13.53125 -103.535156 12.597656 -105.945312 10.734375 -108.125 C 8.878906 -110.300781 6.628906 -111.390625 3.984375 -111.390625 L 41.53125 -111.390625 Z M 41.53125 -110.4375 "/></g></g></g></svg>