<svg xmlns="http://www.w3.org/2000/svg" xmlns:xlink="http://www.w3.org/1999/xlink" width="500" zoomAndPan="magnify" viewBox="0 0 375 374.999991" height="500" preserveAspectRatio="xMidYMid meet" version="1.0"><defs><g/></defs><g fill="#000000" fill-opacity="1"><g transform="translate(185.240527, 140.530865)"><g/></g></g><g fill="#000000" fill-opacity="1"><g transform="translate(13.568318, 192.256106)"><g><path d="M 16.828125 -30.75 L 16.828125 -26.8125 C 16.828125 -25.738281 17.203125 -24.757812 17.953125 -23.875 C 18.703125 -23 19.632812 -22.5625 20.75 -22.5625 C 19.632812 -22.5625 18.703125 -22.117188 17.953125 -21.234375 C 17.203125 -20.359375 16.828125 -19.382812 16.828125 -18.3125 L 16.828125 -4.25 C 16.828125 -3.175781 17.203125 -2.195312 17.953125 -1.3125 C 18.703125 -0.4375 19.632812 0 20.75 0 L 1.609375 0 C 2.679688 0 3.59375 -0.4375 4.34375 -1.3125 C 5.101562 -2.195312 5.484375 -3.175781 5.484375 -4.25 L 5.484375 -40.859375 C 5.484375 -41.929688 5.101562 -42.910156 4.34375 -43.796875 C 3.59375 -44.679688 2.679688 -45.125 1.609375 -45.125 L 20.75 -45.125 C 19.632812 -45.125 18.703125 -44.679688 17.953125 -43.796875 C 17.203125 -42.910156 16.828125 -41.929688 16.828125 -40.859375 Z M 37.90625 -4.25 C 37.90625 -3.175781 38.28125 -2.195312 39.03125 -1.3125 C 39.78125 -0.4375 40.710938 0 41.828125 0 L 22.6875 0 C 23.757812 0 24.671875 -0.4375 25.421875 -1.3125 C 26.179688 -2.195312 26.5625 -3.175781 26.5625 -4.25 L 26.5625 -18.3125 C 26.5625 -19.382812 26.179688 -20.359375 25.421875 -21.234375 C 24.671875 -22.117188 23.757812 -22.5625 22.6875 -22.5625 C 23.757812 -22.5625 24.671875 -23 25.421875 -23.875 C 26.179688 -24.757812 26.5625 -25.738281 26.5625 -26.8125 L 26.5625 -40.859375 C 26.5625 -41.929688 26.179688 -42.910156 25.421875 -43.796875 C 24.671875 -44.679688 23.757812 -45.125 22.6875 -45.125 L 41.828125 -45.125 C 40.710938 -45.125 39.78125 -44.679688 39.03125 -43.796875 C 38.28125 -42.910156 37.90625 -41.929688 37.90625 -40.859375 Z M 37.90625 -4.25 "/></g></g></g><g fill="#000000" fill-opacity="1"><g transform="translate(52.497552, 192.256106)"><g><path d="M 16.828125 -32.296875 C 18.796875 -32.203125 20.640625 -31.710938 22.359375 -30.828125 C 24.078125 -29.953125 25.582031 -28.785156 26.875 -27.328125 C 28.164062 -25.867188 29.175781 -24.160156 29.90625 -22.203125 C 30.632812 -20.242188 31 -18.171875 31 -15.984375 C 31 -13.796875 30.632812 -11.722656 29.90625 -9.765625 C 29.175781 -7.804688 28.164062 -6.097656 26.875 -4.640625 C 25.582031 -3.179688 24.078125 -2.007812 22.359375 -1.125 C 20.640625 -0.25 18.796875 0.234375 16.828125 0.328125 C 18.285156 0.0234375 19.390625 -1.507812 20.140625 -4.28125 C 20.890625 -7.050781 21.265625 -10.953125 21.265625 -15.984375 C 21.265625 -21.015625 20.890625 -24.914062 20.140625 -27.6875 C 19.390625 -30.457031 18.285156 -31.992188 16.828125 -32.296875 Z M 15.734375 -32.296875 C 14.304688 -31.992188 13.207031 -30.457031 12.4375 -27.6875 C 11.664062 -24.914062 11.28125 -21.015625 11.28125 -15.984375 C 11.28125 -10.953125 11.664062 -7.050781 12.4375 -4.28125 C 13.207031 -1.507812 14.304688 0.0234375 15.734375 0.328125 C 13.753906 0.234375 11.90625 -0.25 10.1875 -1.125 C 8.46875 -2.007812 6.972656 -3.179688 5.703125 -4.640625 C 4.429688 -6.097656 3.429688 -7.804688 2.703125 -9.765625 C 1.972656 -11.722656 1.609375 -13.796875 1.609375 -15.984375 C 1.609375 -18.171875 1.972656 -20.242188 2.703125 -22.203125 C 3.429688 -24.160156 4.429688 -25.867188 5.703125 -27.328125 C 6.972656 -28.785156 8.46875 -29.953125 10.1875 -30.828125 C 11.90625 -31.710938 13.753906 -32.203125 15.734375 -32.296875 Z M 15.734375 -32.296875 "/></g></g></g><g fill="#000000" fill-opacity="1"><g transform="translate(80.598741, 192.256106)"><g><path d="M 13.921875 -3.546875 C 13.921875 -2.773438 14.175781 -2.019531 14.6875 -1.28125 C 15.207031 -0.550781 15.832031 -0.125 16.5625 0 L 1.609375 0 C 2.335938 -0.125 2.957031 -0.550781 3.46875 -1.28125 C 3.988281 -2.019531 4.25 -2.773438 4.25 -3.546875 L 4.25 -26.484375 C 4.25 -27.304688 3.988281 -28.070312 3.46875 -28.78125 C 2.957031 -29.488281 2.335938 -29.90625 1.609375 -30.03125 L 12.640625 -31.640625 L 12.828125 -31.640625 C 13.554688 -31.640625 13.921875 -31.273438 13.921875 -30.546875 Z M 30.875 -3.546875 C 30.875 -2.773438 31.128906 -2.019531 31.640625 -1.28125 C 32.160156 -0.550781 32.785156 -0.125 33.515625 0 L 18.5625 0 C 19.289062 -0.125 19.910156 -0.550781 20.421875 -1.28125 C 20.941406 -2.019531 21.203125 -2.773438 21.203125 -3.546875 L 21.203125 -22.5625 C 21.203125 -23.375 21.375 -24.054688 21.71875 -24.609375 C 22.0625 -25.171875 22.445312 -25.675781 22.875 -26.125 C 23.3125 -26.582031 23.703125 -27.035156 24.046875 -27.484375 C 24.390625 -27.941406 24.5625 -28.46875 24.5625 -29.0625 C 24.5625 -29.800781 24.148438 -30.4375 23.328125 -30.96875 C 22.515625 -31.507812 21.460938 -31.78125 20.171875 -31.78125 C 18.796875 -31.78125 17.570312 -31.609375 16.5 -31.265625 C 15.425781 -30.921875 14.675781 -30.640625 14.25 -30.421875 C 15.75 -31.148438 17.453125 -31.695312 19.359375 -32.0625 C 21.273438 -32.425781 23.09375 -32.414062 24.8125 -32.03125 C 26.53125 -31.644531 27.96875 -30.785156 29.125 -29.453125 C 30.289062 -28.117188 30.875 -26.125 30.875 -23.46875 Z M 47.828125 -3.546875 C 47.828125 -2.773438 48.082031 -2.019531 48.59375 -1.28125 C 49.113281 -0.550781 49.738281 -0.125 50.46875 0 L 35.515625 0 C 36.242188 -0.125 36.863281 -0.550781 37.375 -1.28125 C 37.894531 -2.019531 38.15625 -2.773438 38.15625 -3.546875 L 38.15625 -22.5625 C 38.15625 -23.375 38.328125 -24.054688 38.671875 -24.609375 C 39.015625 -25.171875 39.398438 -25.675781 39.828125 -26.125 C 40.265625 -26.582031 40.65625 -27.035156 41 -27.484375 C 41.34375 -27.941406 41.515625 -28.46875 41.515625 -29.0625 C 41.515625 -29.800781 41.09375 -30.4375 40.25 -30.96875 C 39.414062 -31.507812 38.375 -31.78125 37.125 -31.78125 C 35.75 -31.78125 34.523438 -31.609375 33.453125 -31.265625 C 32.378906 -30.921875 31.628906 -30.640625 31.203125 -30.421875 C 32.703125 -31.148438 34.40625 -31.695312 36.3125 -32.0625 C 38.226562 -32.425781 40.046875 -32.414062 41.765625 -32.03125 C 43.484375 -31.644531 44.921875 -30.785156 46.078125 -29.453125 C 47.242188 -28.117188 47.828125 -26.125 47.828125 -23.46875 Z M 47.828125 -3.546875 "/></g></g></g><g fill="#000000" fill-opacity="1"><g transform="translate(128.164631, 192.256106)"><g><path d="M 21.921875 -3.796875 C 23.160156 -3.796875 24.378906 -4.109375 25.578125 -4.734375 C 26.785156 -5.359375 27.84375 -6.226562 28.75 -7.34375 C 27.457031 -5.03125 25.710938 -3.171875 23.515625 -1.765625 C 21.328125 -0.367188 18.925781 0.328125 16.3125 0.328125 C 14.289062 0.328125 12.382812 -0.0976562 10.59375 -0.953125 C 8.8125 -1.816406 7.253906 -2.976562 5.921875 -4.4375 C 4.597656 -5.90625 3.546875 -7.625 2.765625 -9.59375 C 1.992188 -11.570312 1.609375 -13.703125 1.609375 -15.984375 C 1.609375 -18.222656 1.992188 -20.335938 2.765625 -22.328125 C 3.546875 -24.328125 4.597656 -26.054688 5.921875 -27.515625 C 7.253906 -28.984375 8.8125 -30.144531 10.59375 -31 C 12.382812 -31.863281 14.289062 -32.296875 16.3125 -32.296875 C 15.875 -32.203125 15.363281 -31.800781 14.78125 -31.09375 C 14.207031 -30.382812 13.660156 -29.453125 13.140625 -28.296875 C 12.628906 -27.140625 12.191406 -25.796875 11.828125 -24.265625 C 11.460938 -22.742188 11.28125 -21.125 11.28125 -19.40625 C 11.28125 -17.25 11.554688 -15.222656 12.109375 -13.328125 C 12.671875 -11.441406 13.4375 -9.789062 14.40625 -8.375 C 15.375 -6.957031 16.5 -5.835938 17.78125 -5.015625 C 19.070312 -4.203125 20.453125 -3.796875 21.921875 -3.796875 Z M 21.140625 -21.265625 C 21.140625 -22.554688 21.03125 -23.8125 20.8125 -25.03125 C 20.601562 -26.257812 20.328125 -27.367188 19.984375 -28.359375 C 19.640625 -29.347656 19.21875 -30.1875 18.71875 -30.875 C 18.226562 -31.5625 17.703125 -32.035156 17.140625 -32.296875 C 18.773438 -32.160156 20.300781 -31.75 21.71875 -31.0625 C 23.132812 -30.375 24.398438 -29.472656 25.515625 -28.359375 C 26.640625 -27.242188 27.578125 -25.929688 28.328125 -24.421875 C 29.078125 -22.921875 29.625 -21.289062 29.96875 -19.53125 L 19.34375 -19.53125 C 19.8125 -19.53125 20.226562 -19.703125 20.59375 -20.046875 C 20.957031 -20.390625 21.140625 -20.796875 21.140625 -21.265625 Z M 21.140625 -21.265625 "/></g></g></g><g fill="#000000" fill-opacity="1"><g transform="translate(155.238679, 192.256106)"><g/></g></g><g fill="#000000" fill-opacity="1"><g transform="translate(160.072469, 192.256106)"><g/></g></g><g fill="#000000" fill-opacity="1"><g transform="translate(164.906948, 192.256106)"><g><path d="M 23.390625 -45.125 C 26.191406 -45.125 28.828125 -44.53125 31.296875 -43.34375 C 33.765625 -42.164062 35.910156 -40.554688 37.734375 -38.515625 C 39.566406 -36.472656 41.019531 -34.078125 42.09375 -31.328125 C 43.164062 -28.578125 43.703125 -25.65625 43.703125 -22.5625 C 43.703125 -19.46875 43.164062 -16.546875 42.09375 -13.796875 C 41.019531 -11.046875 39.566406 -8.648438 37.734375 -6.609375 C 35.910156 -4.566406 33.765625 -2.953125 31.296875 -1.765625 C 28.828125 -0.585938 26.191406 0 23.390625 0 L 18.828125 0 C 20.585938 0 22.25 -0.597656 23.8125 -1.796875 C 25.382812 -3.003906 26.75 -4.640625 27.90625 -6.703125 C 29.070312 -8.765625 29.984375 -11.160156 30.640625 -13.890625 C 31.304688 -16.617188 31.640625 -19.507812 31.640625 -22.5625 C 31.640625 -25.613281 31.304688 -28.503906 30.640625 -31.234375 C 29.984375 -33.960938 29.070312 -36.359375 27.90625 -38.421875 C 26.75 -40.484375 25.382812 -42.113281 23.8125 -43.3125 C 22.25 -44.519531 20.585938 -45.125 18.828125 -45.125 Z M 16.828125 -44.734375 L 16.828125 0 L 1.609375 0 C 2.679688 0 3.59375 -0.4375 4.34375 -1.3125 C 5.101562 -2.195312 5.484375 -3.175781 5.484375 -4.25 L 5.484375 -40.859375 C 5.484375 -41.929688 5.101562 -42.910156 4.34375 -43.796875 C 3.59375 -44.679688 2.679688 -45.125 1.609375 -45.125 L 16.828125 -45.125 Z M 16.828125 -44.734375 "/></g></g></g><g fill="#000000" fill-opacity="1"><g transform="translate(205.705308, 192.256106)"><g><path d="M 21.921875 -3.796875 C 23.160156 -3.796875 24.378906 -4.109375 25.578125 -4.734375 C 26.785156 -5.359375 27.84375 -6.226562 28.75 -7.34375 C 27.457031 -5.03125 25.710938 -3.171875 23.515625 -1.765625 C 21.328125 -0.367188 18.925781 0.328125 16.3125 0.328125 C 14.289062 0.328125 12.382812 -0.0976562 10.59375 -0.953125 C 8.8125 -1.816406 7.253906 -2.976562 5.921875 -4.4375 C 4.597656 -5.90625 3.546875 -7.625 2.765625 -9.59375 C 1.992188 -11.570312 1.609375 -13.703125 1.609375 -15.984375 C 1.609375 -18.222656 1.992188 -20.335938 2.765625 -22.328125 C 3.546875 -24.328125 4.597656 -26.054688 5.921875 -27.515625 C 7.253906 -28.984375 8.8125 -30.144531 10.59375 -31 C 12.382812 -31.863281 14.289062 -32.296875 16.3125 -32.296875 C 15.875 -32.203125 15.363281 -31.800781 14.78125 -31.09375 C 14.207031 -30.382812 13.660156 -29.453125 13.140625 -28.296875 C 12.628906 -27.140625 12.191406 -25.796875 11.828125 -24.265625 C 11.460938 -22.742188 11.28125 -21.125 11.28125 -19.40625 C 11.28125 -17.25 11.554688 -15.222656 12.109375 -13.328125 C 12.671875 -11.441406 13.4375 -9.789062 14.40625 -8.375 C 15.375 -6.957031 16.5 -5.835938 17.78125 -5.015625 C 19.070312 -4.203125 20.453125 -3.796875 21.921875 -3.796875 Z M 21.140625 -21.265625 C 21.140625 -22.554688 21.03125 -23.8125 20.8125 -25.03125 C 20.601562 -26.257812 20.328125 -27.367188 19.984375 -28.359375 C 19.640625 -29.347656 19.21875 -30.1875 18.71875 -30.875 C 18.226562 -31.5625 17.703125 -32.035156 17.140625 -32.296875 C 18.773438 -32.160156 20.300781 -31.75 21.71875 -31.0625 C 23.132812 -30.375 24.398438 -29.472656 25.515625 -28.359375 C 26.640625 -27.242188 27.578125 -25.929688 28.328125 -24.421875 C 29.078125 -22.921875 29.625 -21.289062 29.96875 -19.53125 L 19.34375 -19.53125 C 19.8125 -19.53125 20.226562 -19.703125 20.59375 -20.046875 C 20.957031 -20.390625 21.140625 -20.796875 21.140625 -21.265625 Z M 21.140625 -21.265625 "/></g></g></g><g fill="#000000" fill-opacity="1"><g transform="translate(232.775253, 192.256106)"><g><path d="M 8.578125 -2.25 C 8.660156 -1.65625 9.035156 -1.109375 9.703125 -0.609375 C 10.367188 -0.117188 11.300781 0.171875 12.5 0.265625 C 11 0.171875 9.59375 -0.109375 8.28125 -0.578125 C 6.96875 -1.054688 5.816406 -1.660156 4.828125 -2.390625 C 3.847656 -3.117188 3.066406 -3.960938 2.484375 -4.921875 C 1.898438 -5.890625 1.609375 -6.9375 1.609375 -8.0625 C 1.609375 -9.4375 2.09375 -10.601562 3.0625 -11.5625 C 4.03125 -12.53125 5.203125 -13.015625 6.578125 -13.015625 C 7.265625 -13.015625 7.914062 -12.882812 8.53125 -12.625 C 9.15625 -12.375 9.691406 -12.019531 10.140625 -11.5625 C 10.597656 -11.113281 10.957031 -10.585938 11.21875 -9.984375 C 11.476562 -9.390625 11.609375 -8.75 11.609375 -8.0625 C 11.609375 -7.28125 11.445312 -6.554688 11.125 -5.890625 C 10.800781 -5.234375 10.359375 -4.664062 9.796875 -4.1875 C 9.453125 -3.882812 9.148438 -3.570312 8.890625 -3.25 C 8.640625 -2.925781 8.535156 -2.59375 8.578125 -2.25 Z M 25.90625 -8.703125 C 26 -7.410156 25.734375 -6.21875 25.109375 -5.125 C 24.484375 -4.03125 23.597656 -3.082031 22.453125 -2.28125 C 21.316406 -1.488281 20 -0.851562 18.5 -0.375 C 17 0.09375 15.410156 0.328125 13.734375 0.328125 C 14.890625 0.328125 15.875 -0.144531 16.6875 -1.09375 C 17.507812 -2.039062 17.921875 -3.09375 17.921875 -4.25 C 17.921875 -5.320312 17.519531 -6.363281 16.71875 -7.375 C 15.925781 -8.382812 14.914062 -9.394531 13.6875 -10.40625 C 12.46875 -11.414062 11.160156 -12.457031 9.765625 -13.53125 C 8.367188 -14.601562 7.054688 -15.71875 5.828125 -16.875 C 4.609375 -18.039062 3.597656 -19.269531 2.796875 -20.5625 C 2.003906 -21.851562 1.609375 -23.25 1.609375 -24.75 C 1.609375 -26.039062 1.953125 -27.15625 2.640625 -28.09375 C 3.328125 -29.039062 4.195312 -29.828125 5.25 -30.453125 C 6.300781 -31.078125 7.472656 -31.539062 8.765625 -31.84375 C 10.054688 -32.144531 11.300781 -32.296875 12.5 -32.296875 C 12.882812 -32.296875 13.238281 -32.296875 13.5625 -32.296875 C 13.882812 -32.296875 14.21875 -32.25 14.5625 -32.15625 C 13.40625 -32.332031 12.40625 -32.066406 11.5625 -31.359375 C 10.726562 -30.648438 10.3125 -29.585938 10.3125 -28.171875 C 10.3125 -27.003906 10.675781 -25.925781 11.40625 -24.9375 C 12.132812 -23.957031 13.054688 -22.992188 14.171875 -22.046875 C 15.296875 -21.097656 16.507812 -20.140625 17.8125 -19.171875 C 19.125 -18.203125 20.359375 -17.191406 21.515625 -16.140625 C 22.679688 -15.085938 23.671875 -13.945312 24.484375 -12.71875 C 25.304688 -11.5 25.78125 -10.160156 25.90625 -8.703125 Z M 23.78125 -20.953125 C 23.613281 -21.890625 23.347656 -22.945312 22.984375 -24.125 C 22.617188 -25.3125 22.101562 -26.441406 21.4375 -27.515625 C 20.769531 -28.597656 19.929688 -29.554688 18.921875 -30.390625 C 17.910156 -31.222656 16.675781 -31.789062 15.21875 -32.09375 C 15.90625 -31.96875 16.535156 -31.816406 17.109375 -31.640625 C 17.691406 -31.472656 18.238281 -31.300781 18.75 -31.125 C 19.269531 -30.957031 19.773438 -30.828125 20.265625 -30.734375 C 20.765625 -30.648438 21.289062 -30.632812 21.84375 -30.6875 C 22.1875 -30.726562 22.5625 -30.8125 22.96875 -30.9375 C 23.382812 -31.0625 23.65625 -31.210938 23.78125 -31.390625 Z M 23.78125 -20.953125 "/></g></g></g><g fill="#000000" fill-opacity="1"><g transform="translate(255.849136, 192.256106)"><g><path d="M 13.921875 -3.546875 C 13.921875 -2.773438 14.175781 -2.019531 14.6875 -1.28125 C 15.207031 -0.550781 15.832031 -0.125 16.5625 0 L 1.609375 0 C 2.335938 -0.125 2.957031 -0.550781 3.46875 -1.28125 C 3.988281 -2.019531 4.25 -2.773438 4.25 -3.546875 L 4.25 -26.484375 C 4.25 -27.304688 3.988281 -28.070312 3.46875 -28.78125 C 2.957031 -29.488281 2.335938 -29.90625 1.609375 -30.03125 L 12.640625 -31.640625 L 12.828125 -31.640625 C 13.554688 -31.640625 13.921875 -31.273438 13.921875 -30.546875 Z M 9.09375 -35.125 C 7.71875 -35.125 6.546875 -35.609375 5.578125 -36.578125 C 4.609375 -37.546875 4.125 -38.71875 4.125 -40.09375 C 4.125 -41.46875 4.609375 -42.648438 5.578125 -43.640625 C 6.546875 -44.628906 7.71875 -45.125 9.09375 -45.125 C 10.46875 -45.125 11.644531 -44.628906 12.625 -43.640625 C 13.613281 -42.648438 14.109375 -41.46875 14.109375 -40.09375 C 14.109375 -39.40625 13.976562 -38.757812 13.71875 -38.15625 C 13.46875 -37.550781 13.113281 -37.023438 12.65625 -36.578125 C 12.207031 -36.128906 11.671875 -35.773438 11.046875 -35.515625 C 10.429688 -35.253906 9.78125 -35.125 9.09375 -35.125 Z M 9.09375 -35.125 "/></g></g></g><g fill="#000000" fill-opacity="1"><g transform="translate(269.512935, 192.256106)"><g><path d="M 28.109375 -6.96875 C 29.304688 -6.664062 30.421875 -6.171875 31.453125 -5.484375 C 32.484375 -4.796875 33.375 -3.957031 34.125 -2.96875 C 34.875 -1.976562 35.460938 -0.875 35.890625 0.34375 C 36.328125 1.570312 36.546875 2.851562 36.546875 4.1875 C 36.546875 3.03125 36.316406 1.957031 35.859375 0.96875 C 35.410156 -0.0195312 34.800781 -0.890625 34.03125 -1.640625 C 33.257812 -2.390625 32.378906 -2.976562 31.390625 -3.40625 C 30.398438 -3.84375 29.367188 -4.0625 28.296875 -4.0625 C 27.003906 -4.0625 25.84375 -3.769531 24.8125 -3.1875 C 23.78125 -2.613281 22.800781 -1.894531 21.875 -1.03125 C 20.957031 -0.164062 20.054688 0.765625 19.171875 1.765625 C 18.296875 2.773438 17.382812 3.707031 16.4375 4.5625 C 15.488281 5.425781 14.476562 6.148438 13.40625 6.734375 C 12.332031 7.316406 11.148438 7.609375 9.859375 7.609375 C 8.703125 7.609375 7.628906 7.378906 6.640625 6.921875 C 5.648438 6.472656 4.78125 5.851562 4.03125 5.0625 C 3.28125 4.269531 2.6875 3.34375 2.25 2.28125 C 1.820312 1.226562 1.609375 0.101562 1.609375 -1.09375 C 1.609375 -3.03125 2.144531 -4.75 3.21875 -6.25 C 4.289062 -7.757812 5.664062 -8.789062 7.34375 -9.34375 C 6.75 -9 6.28125 -8.453125 5.9375 -7.703125 C 5.59375 -6.953125 5.421875 -6.210938 5.421875 -5.484375 C 5.421875 -4.316406 5.835938 -3.3125 6.671875 -2.46875 C 7.503906 -1.632812 8.503906 -1.21875 9.671875 -1.21875 C 10.867188 -1.21875 12.078125 -1.507812 13.296875 -2.09375 C 14.523438 -2.675781 15.785156 -3.332031 17.078125 -4.0625 C 15.273438 -4.320312 13.597656 -4.859375 12.046875 -5.671875 C 10.503906 -6.484375 9.160156 -7.515625 8.015625 -8.765625 C 6.878906 -10.015625 5.988281 -11.429688 5.34375 -13.015625 C 4.707031 -14.609375 4.390625 -16.304688 4.390625 -18.109375 C 4.390625 -20.003906 4.753906 -21.785156 5.484375 -23.453125 C 6.210938 -25.128906 7.195312 -26.613281 8.4375 -27.90625 C 9.6875 -29.195312 11.160156 -30.226562 12.859375 -31 C 14.554688 -31.769531 16.375 -32.203125 18.3125 -32.296875 C 16.9375 -31.953125 15.890625 -30.566406 15.171875 -28.140625 C 14.460938 -25.710938 14.109375 -22.367188 14.109375 -18.109375 C 14.109375 -14.328125 14.398438 -11.265625 14.984375 -8.921875 C 15.566406 -6.585938 16.414062 -5.050781 17.53125 -4.3125 C 18.34375 -4.789062 19.144531 -5.234375 19.9375 -5.640625 C 20.738281 -6.046875 21.570312 -6.378906 22.4375 -6.640625 C 22.988281 -7.835938 23.394531 -9.40625 23.65625 -11.34375 C 23.914062 -13.28125 24.046875 -15.535156 24.046875 -18.109375 C 24.046875 -22.367188 23.691406 -25.710938 22.984375 -28.140625 C 22.273438 -30.566406 21.234375 -31.953125 19.859375 -32.296875 C 21.785156 -32.203125 23.597656 -31.769531 25.296875 -31 C 26.992188 -30.226562 28.460938 -29.195312 29.703125 -27.90625 C 30.953125 -26.613281 31.941406 -25.128906 32.671875 -23.453125 C 33.410156 -21.785156 33.78125 -20.003906 33.78125 -18.109375 C 33.78125 -15.835938 33.273438 -13.734375 32.265625 -11.796875 C 31.253906 -9.859375 29.867188 -8.25 28.109375 -6.96875 Z M 24.8125 11.859375 C 24.550781 12.160156 24.3125 12.484375 24.09375 12.828125 C 23.882812 13.171875 23.78125 13.515625 23.78125 13.859375 C 23.78125 14.367188 23.953125 14.785156 24.296875 15.109375 C 24.640625 15.429688 25.113281 15.59375 25.71875 15.59375 C 24.46875 15.59375 23.285156 15.398438 22.171875 15.015625 C 21.054688 14.628906 20.054688 14.101562 19.171875 13.4375 C 18.296875 12.769531 17.597656 11.992188 17.078125 11.109375 C 16.566406 10.234375 16.3125 9.300781 16.3125 8.3125 C 16.3125 6.9375 16.800781 5.753906 17.78125 4.765625 C 18.769531 3.773438 19.953125 3.28125 21.328125 3.28125 C 22.015625 3.28125 22.660156 3.410156 23.265625 3.671875 C 23.867188 3.929688 24.394531 4.285156 24.84375 4.734375 C 25.300781 5.191406 25.65625 5.726562 25.90625 6.34375 C 26.164062 6.96875 26.296875 7.625 26.296875 8.3125 C 26.296875 9.6875 25.800781 10.867188 24.8125 11.859375 Z M 25.78125 -31.125 C 24.445312 -32.113281 23.222656 -33.367188 22.109375 -34.890625 C 20.992188 -36.421875 20.4375 -38.15625 20.4375 -40.09375 C 20.4375 -41.46875 20.925781 -42.648438 21.90625 -43.640625 C 22.894531 -44.628906 24.078125 -45.125 25.453125 -45.125 C 26.140625 -45.125 26.785156 -44.992188 27.390625 -44.734375 C 27.992188 -44.472656 28.519531 -44.113281 28.96875 -43.65625 C 29.425781 -43.207031 29.78125 -42.671875 30.03125 -42.046875 C 30.289062 -41.429688 30.421875 -40.78125 30.421875 -40.09375 C 30.421875 -38.925781 30.109375 -37.976562 29.484375 -37.25 C 28.859375 -36.519531 28.054688 -35.898438 27.078125 -35.390625 C 26.335938 -35.003906 25.796875 -34.648438 25.453125 -34.328125 C 25.109375 -34.003906 24.9375 -33.539062 24.9375 -32.9375 C 24.9375 -32.375 25.21875 -31.769531 25.78125 -31.125 Z M 25.78125 -31.125 "/></g></g></g><g fill="#000000" fill-opacity="1"><g transform="translate(303.221502, 192.256106)"><g><path d="M 13.921875 -18.828125 L 13.921875 -3.546875 C 13.921875 -2.773438 14.175781 -2.019531 14.6875 -1.28125 C 15.207031 -0.550781 15.832031 -0.125 16.5625 0 L 1.609375 0 C 2.335938 -0.125 2.957031 -0.550781 3.46875 -1.28125 C 3.988281 -2.019531 4.25 -2.773438 4.25 -3.546875 L 4.25 -26.484375 C 4.25 -27.304688 3.988281 -28.070312 3.46875 -28.78125 C 2.957031 -29.488281 2.335938 -29.90625 1.609375 -30.03125 L 12.640625 -31.640625 L 12.828125 -31.640625 C 13.554688 -31.640625 13.921875 -31.273438 13.921875 -30.546875 Z M 30.875 -3.546875 C 30.875 -2.773438 31.128906 -2.019531 31.640625 -1.28125 C 32.160156 -0.550781 32.785156 -0.125 33.515625 0 L 18.5625 0 C 19.289062 -0.125 19.910156 -0.550781 20.421875 -1.28125 C 20.941406 -2.019531 21.203125 -2.773438 21.203125 -3.546875 L 21.203125 -22.5625 C 21.203125 -23.375 21.375 -24.054688 21.71875 -24.609375 C 22.0625 -25.171875 22.445312 -25.675781 22.875 -26.125 C 23.3125 -26.582031 23.703125 -27.035156 24.046875 -27.484375 C 24.390625 -27.941406 24.5625 -28.46875 24.5625 -29.0625 C 24.5625 -29.800781 24.148438 -30.4375 23.328125 -30.96875 C 22.515625 -31.507812 21.460938 -31.78125 20.171875 -31.78125 C 18.796875 -31.78125 17.570312 -31.609375 16.5 -31.265625 C 15.425781 -30.921875 14.675781 -30.640625 14.25 -30.421875 C 15.75 -31.148438 17.453125 -31.695312 19.359375 -32.0625 C 21.273438 -32.425781 23.09375 -32.414062 24.8125 -32.03125 C 26.53125 -31.644531 27.96875 -30.785156 29.125 -29.453125 C 30.289062 -28.117188 30.875 -26.125 30.875 -23.46875 Z M 30.875 -3.546875 "/></g></g></g><g fill="#000000" fill-opacity="1"><g transform="translate(333.83635, 192.256106)"><g><path d="M 8.578125 -2.25 C 8.660156 -1.65625 9.035156 -1.109375 9.703125 -0.609375 C 10.367188 -0.117188 11.300781 0.171875 12.5 0.265625 C 11 0.171875 9.59375 -0.109375 8.28125 -0.578125 C 6.96875 -1.054688 5.816406 -1.660156 4.828125 -2.390625 C 3.847656 -3.117188 3.066406 -3.960938 2.484375 -4.921875 C 1.898438 -5.890625 1.609375 -6.9375 1.609375 -8.0625 C 1.609375 -9.4375 2.09375 -10.601562 3.0625 -11.5625 C 4.03125 -12.53125 5.203125 -13.015625 6.578125 -13.015625 C 7.265625 -13.015625 7.914062 -12.882812 8.53125 -12.625 C 9.15625 -12.375 9.691406 -12.019531 10.140625 -11.5625 C 10.597656 -11.113281 10.957031 -10.585938 11.21875 -9.984375 C 11.476562 -9.390625 11.609375 -8.75 11.609375 -8.0625 C 11.609375 -7.28125 11.445312 -6.554688 11.125 -5.890625 C 10.800781 -5.234375 10.359375 -4.664062 9.796875 -4.1875 C 9.453125 -3.882812 9.148438 -3.570312 8.890625 -3.25 C 8.640625 -2.925781 8.535156 -2.59375 8.578125 -2.25 Z M 25.90625 -8.703125 C 26 -7.410156 25.734375 -6.21875 25.109375 -5.125 C 24.484375 -4.03125 23.597656 -3.082031 22.453125 -2.28125 C 21.316406 -1.488281 20 -0.851562 18.5 -0.375 C 17 0.09375 15.410156 0.328125 13.734375 0.328125 C 14.890625 0.328125 15.875 -0.144531 16.6875 -1.09375 C 17.507812 -2.039062 17.921875 -3.09375 17.921875 -4.25 C 17.921875 -5.320312 17.519531 -6.363281 16.71875 -7.375 C 15.925781 -8.382812 14.914062 -9.394531 13.6875 -10.40625 C 12.46875 -11.414062 11.160156 -12.457031 9.765625 -13.53125 C 8.367188 -14.601562 7.054688 -15.71875 5.828125 -16.875 C 4.609375 -18.039062 3.597656 -19.269531 2.796875 -20.5625 C 2.003906 -21.851562 1.609375 -23.25 1.609375 -24.75 C 1.609375 -26.039062 1.953125 -27.15625 2.640625 -28.09375 C 3.328125 -29.039062 4.195312 -29.828125 5.25 -30.453125 C 6.300781 -31.078125 7.472656 -31.539062 8.765625 -31.84375 C 10.054688 -32.144531 11.300781 -32.296875 12.5 -32.296875 C 12.882812 -32.296875 13.238281 -32.296875 13.5625 -32.296875 C 13.882812 -32.296875 14.21875 -32.25 14.5625 -32.15625 C 13.40625 -32.332031 12.40625 -32.066406 11.5625 -31.359375 C 10.726562 -30.648438 10.3125 -29.585938 10.3125 -28.171875 C 10.3125 -27.003906 10.675781 -25.925781 11.40625 -24.9375 C 12.132812 -23.957031 13.054688 -22.992188 14.171875 -22.046875 C 15.296875 -21.097656 16.507812 -20.140625 17.8125 -19.171875 C 19.125 -18.203125 20.359375 -17.191406 21.515625 -16.140625 C 22.679688 -15.085938 23.671875 -13.945312 24.484375 -12.71875 C 25.304688 -11.5 25.78125 -10.160156 25.90625 -8.703125 Z M 23.78125 -20.953125 C 23.613281 -21.890625 23.347656 -22.945312 22.984375 -24.125 C 22.617188 -25.3125 22.101562 -26.441406 21.4375 -27.515625 C 20.769531 -28.597656 19.929688 -29.554688 18.921875 -30.390625 C 17.910156 -31.222656 16.675781 -31.789062 15.21875 -32.09375 C 15.90625 -31.96875 16.535156 -31.816406 17.109375 -31.640625 C 17.691406 -31.472656 18.238281 -31.300781 18.75 -31.125 C 19.269531 -30.957031 19.773438 -30.828125 20.265625 -30.734375 C 20.765625 -30.648438 21.289062 -30.632812 21.84375 -30.6875 C 22.1875 -30.726562 22.5625 -30.8125 22.96875 -30.9375 C 23.382812 -31.0625 23.65625 -31.210938 23.78125 -31.390625 Z M 23.78125 -20.953125 "/></g></g></g></svg>